<?xml version="1.0" encoding="utf-8"?>
<!-- Generator: Adobe Illustrator 19.2.1, SVG Export Plug-In . SVG Version: 6.00 Build 0)  -->
<svg version="1.1" id="layer" xmlns="http://www.w3.org/2000/svg" xmlns:xlink="http://www.w3.org/1999/xlink" x="0px" y="0px"
	 viewBox="0 0 652 652" style="enable-background:new 0 0 652 652;" xml:space="preserve">
<style type="text/css">
	.st0{fill:#00053E;}
</style>
<polygon class="st0" points="144.2,334.9 141.6,334.9 141.6,323.7 137.4,323.7 137.4,321.4 148.2,321.4 148.6,323.7 144.2,323.7 "/>
<polygon class="st0" points="164.6,334.9 162,334.9 162,329.1 156.2,329.1 156.2,334.9 153.6,334.9 153.6,321.4 156.2,321.4 
	156.2,326.6 162,326.6 162,321.4 164.6,321.4 "/>
<polygon class="st0" points="180.9,334.9 172.2,334.9 172.2,321.4 180.7,321.4 180.7,323.7 174.8,323.7 174.8,326.7 179.5,326.7 
	179.9,329 174.8,329 174.8,332.5 180.9,332.5 "/>
<g>
	<path class="st0" d="M201.2,335.1c-3.4,0-5.5-2.1-5.5-5.5v-8.2h2.6v8.1c0,2.2,1,3.4,2.9,3.4c1.9,0,2.9-1.1,2.9-3.3v-8.2h2.6v8.1
		C206.8,333,204.7,335.1,201.2,335.1"/>
	<polygon class="st0" points="225,334.9 222.8,334.9 216.4,325.4 216.4,334.9 213.9,334.9 213.9,321.4 216.5,321.4 222.6,330.4 
		222.6,321.4 225,321.4 	"/>
	<rect x="232.5" y="321.4" class="st0" width="2.6" height="13.5"/>
	<polygon class="st0" points="248,335.1 245.6,335.1 240.4,321.7 243,321.1 246.9,331.7 250.7,321.4 253.3,321.4 	"/>
	<polygon class="st0" points="267,334.9 258.3,334.9 258.3,321.4 266.8,321.4 266.8,323.7 260.9,323.7 260.9,326.7 265.6,326.7 
		266,329 260.9,329 260.9,332.5 267,332.5 	"/>
	<path class="st0" d="M281.3,335l-3.8-5.3h-1.2v5.1h-2.6v-13.5h4.2c3.2,0,5.1,1.6,5.1,4.2c0,1.8-0.9,3.2-2.7,3.8l3.7,5L281.3,335z
		 M276.2,327.7h1.6c1.6,0,2.5-0.7,2.5-2.1c0-1.6-1.4-1.9-2.5-1.9h-1.6V327.7z"/>
	<path class="st0" d="M293.7,335.1c-1.4,0-3.1-0.4-4.6-1l-0.1,0l0.4-2.4l0.2,0.1c1.4,0.7,3,1.2,4.2,1.2c1.5,0,2.5-0.7,2.5-1.7
		c0-1-0.6-1.4-2.5-2c-2.8-1-4.3-1.9-4.3-4c0-2.3,1.9-3.9,4.6-3.9c1.4,0,2.7,0.3,3.9,0.8l0.1,0l-0.4,2.5l-0.2-0.1
		c-1.3-0.7-2.4-1-3.5-1c-1.2,0-2.1,0.6-2.1,1.4c0,0.9,0.6,1.2,2.7,2c2.7,0.9,4.1,1.8,4.1,4.1C298.6,333.4,296.6,335.1,293.7,335.1"
		/>
	<rect x="305.2" y="321.4" class="st0" width="2.6" height="13.5"/>
	<polygon class="st0" points="319.7,334.9 317.1,334.9 317.1,323.7 312.9,323.7 312.9,321.4 323.7,321.4 324.1,323.7 319.7,323.7 	
		"/>
	<polygon class="st0" points="333.3,334.9 330.7,334.9 330.7,329.7 325.8,321.7 328.5,321.1 332,327.3 335.4,321.4 338.3,321.4 
		333.3,329.6 	"/>
	<path class="st0" d="M355.2,335.1c-3.2,0-6.5-2.4-6.5-7c0-4.6,3.3-7,6.5-7c3.2,0,6.5,2.4,6.5,7
		C361.7,332.7,358.4,335.1,355.2,335.1 M355.2,323.4c-2.3,0-3.8,1.9-3.8,4.7c0,2.8,1.6,4.8,3.8,4.8c2.3,0,3.8-1.9,3.8-4.7
		C359,325.4,357.4,323.4,355.2,323.4"/>
	<polygon class="st0" points="370.4,334.9 367.8,334.9 367.8,321.4 376,321.4 376,323.7 370.4,323.7 370.4,326.9 374.8,326.9 
		375.2,329.2 370.4,329.2 	"/>
	<path class="st0" d="M394.8,334.9h-4.4v-13.5h4.4c2.8,0,4.5,1.3,4.5,3.5c0,1.3-0.6,2.3-1.7,2.8c1.5,0.6,2.3,1.6,2.3,3.1
		C399.9,333.4,398.1,334.9,394.8,334.9 M392.8,332.7h2c1.8,0,2.6-0.6,2.6-1.8c0-1.3-0.9-2-2.6-2h-2V332.7z M392.8,326.8h1.7
		c1.5,0,2.3-0.6,2.3-1.7c0-0.6-0.2-1.5-2.2-1.5h-1.8V326.8z"/>
	<path class="st0" d="M414,335l-3.8-5.3h-1.2v5.1h-2.6v-13.5h4.2c3.2,0,5.1,1.6,5.1,4.2c0,1.8-0.9,3.2-2.7,3.8l3.7,5L414,335z
		 M408.9,327.7h1.6c1.6,0,2.5-0.7,2.5-2.1c0-1.6-1.4-1.9-2.5-1.9h-1.6V327.7z"/>
	<rect x="422.5" y="321.4" class="st0" width="2.6" height="13.5"/>
	<polygon class="st0" points="437,334.9 434.4,334.9 434.4,323.7 430.2,323.7 430.2,321.4 441,321.4 441.4,323.7 437,323.7 	"/>
	<rect x="446.2" y="321.4" class="st0" width="2.6" height="13.5"/>
	<path class="st0" d="M459.8,335.1c-1.4,0-3.1-0.4-4.6-1l-0.1,0l0.4-2.4l0.2,0.1c1.4,0.7,3,1.2,4.2,1.2c1.5,0,2.4-0.7,2.4-1.7
		c0-1-0.6-1.4-2.5-2c-2.8-1-4.3-1.9-4.3-4c0-2.3,1.9-3.9,4.6-3.9c1.4,0,2.7,0.3,3.9,0.8l0.1,0l-0.4,2.5l-0.2-0.1
		c-1.3-0.7-2.4-1-3.5-1c-1.2,0-2.1,0.6-2.1,1.4c0,0.9,0.6,1.2,2.7,2c2.6,0.9,4.1,1.8,4.1,4.1C464.7,333.4,462.7,335.1,459.8,335.1"
		/>
	<polygon class="st0" points="481.6,334.9 478.9,334.9 478.9,329.1 473.1,329.1 473.1,334.9 470.5,334.9 470.5,321.4 473.1,321.4 
		473.1,326.6 478.9,326.6 478.9,321.4 481.6,321.4 	"/>
	<path class="st0" d="M501.8,335.1c-3.9,0-6.5-2.8-6.5-7c0-4.2,2.6-7,6.5-7c1.5,0,2.8,0.3,3.9,1l0.1,0.1l-0.4,2.5l-0.2-0.1
		c-1.1-0.8-2.1-1.2-3.3-1.2c-2.4,0-3.9,1.8-3.9,4.8c0,2.9,1.5,4.8,3.9,4.8c1.2,0,2.4-0.4,3.5-1.2l0.2-0.1l0.4,2.3l-0.1,0
		C504.8,334.7,503.3,335.1,501.8,335.1"/>
	<path class="st0" d="M517.4,335.1c-3.2,0-6.5-2.4-6.5-7c0-4.6,3.3-7,6.5-7c3.2,0,6.5,2.4,6.5,7
		C523.8,332.7,520.6,335.1,517.4,335.1 M517.4,323.4c-2.3,0-3.8,1.9-3.8,4.7c0,2.8,1.6,4.8,3.8,4.8c2.3,0,3.8-1.9,3.8-4.7
		C521.2,325.4,519.6,323.4,517.4,323.4"/>
	<polygon class="st0" points="537.6,334.9 529.6,334.9 529.6,321.4 532.2,321.4 532.2,332.6 537.2,332.6 	"/>
	<path class="st0" d="M547.8,335.1c-3.4,0-5.5-2.1-5.5-5.5v-8.2h2.6v8.1c0,2.2,1,3.4,2.9,3.4c1.9,0,2.9-1.1,2.9-3.3v-8.2h2.6v8.1
		C553.4,333,551.3,335.1,547.8,335.1"/>
	<polygon class="st0" points="569.1,334.9 566.5,334.9 562.9,324.7 562.2,334.9 559.8,334.9 560.8,321.4 564.4,321.4 567.9,331.7 
		571.5,321.4 575,321.4 576,334.9 573.4,334.9 572.7,324.7 	"/>
	<path class="st0" d="M587.6,334.9h-4.4v-13.5h4.4c2.8,0,4.5,1.3,4.5,3.5c0,1.3-0.6,2.3-1.7,2.8c1.5,0.6,2.3,1.6,2.3,3.1
		C592.7,333.4,590.9,334.9,587.6,334.9 M585.6,332.7h2c1.8,0,2.6-0.6,2.6-1.8c0-1.3-0.9-2-2.6-2h-2V332.7z M585.6,326.8h1.7
		c1.5,0,2.3-0.6,2.3-1.7c0-0.6-0.2-1.5-2.2-1.5h-1.8V326.8z"/>
	<rect x="599.3" y="321.4" class="st0" width="2.6" height="13.5"/>
	<path class="st0" d="M617.8,335.1l-1.3-3.6h-5.7l-1.2,3.3h-2.6l5.3-13.7h2.8l5.3,13.3L617.8,335.1z M611.7,329.2h3.9
		c-0.2-0.7-1.2-3.3-2-5.3L611.7,329.2z"/>
	<path class="st0" d="M142.1,301.3c-2.4,0-3.9-1.5-3.9-3.8c0-3.1,2.4-4.7,8-5.2v-0.3c0-1.3-0.7-1.9-2.2-1.9c-1.3,0-2.7,0.3-4.4,1.1
		l-0.1,0.1l-0.5-2.9l0.1,0c1.4-0.5,3.1-1.1,5.3-1.1c3.6,0,5.3,1.4,5.3,4.6v9.2h-3l-0.3-1.6C145.1,300.7,143.8,301.3,142.1,301.3
		 M146.2,294.4c-4,0.5-4.5,1.7-4.5,2.7c0,0.9,0.5,1.4,1.5,1.4c1.1,0,2.1-0.5,3-1.4V294.4z"/>
	<path class="st0" d="M161,306.1v-18.6h3l0.3,1.7c1.2-1.3,2.5-1.9,4-1.9c2.5,0,5.1,1.7,5.1,6.7c0,5.4-3.2,7.3-5.9,7.3
		c-1.1,0-2.1-0.2-3-0.5v4.9L161,306.1z M164.6,297.7c0.7,0.3,1.3,0.5,2.4,0.5c1.8,0,2.9-1.6,2.9-4.2c0-2.3-0.9-3.7-2.4-3.7
		c-1,0-1.9,0.6-2.9,1.8V297.7z"/>
	<polygon class="st0" points="181.6,301 178.1,301 178.1,281.5 181.6,280.9 	"/>
	<path class="st0" d="M190.2,301.3c-2.4,0-3.9-1.5-3.9-3.8c0-3.1,2.4-4.7,8-5.2v-0.3c0-1.3-0.7-1.9-2.2-1.9c-1.3,0-2.7,0.3-4.4,1.1
		l-0.1,0.1l-0.5-2.9l0.1,0c1.4-0.5,3.1-1.1,5.3-1.1c3.6,0,5.3,1.4,5.3,4.6v9.2h-3l-0.3-1.6C193.3,300.7,191.9,301.3,190.2,301.3
		 M194.3,294.4c-4,0.5-4.5,1.7-4.5,2.7c0,0.9,0.5,1.4,1.5,1.4c1.1,0,2.1-0.5,3-1.4V294.4z"/>
	<path class="st0" d="M208.9,301.2c-3.9,0-6.4-2.7-6.4-6.9c0-4.3,2.6-7.1,6.5-7.1c1.6,0,3,0.4,4.2,1.1l0.1,0l-0.5,3.2l-0.2-0.1
		c-1.1-0.8-2.2-1.2-3.4-1.2c-1.9,0-3.1,1.5-3.1,3.9c0,2.5,1.3,3.9,3.4,3.9c1.2,0,2.2-0.4,3.4-1.2l0.2-0.1l0.5,3.1l-0.1,0
		C212,300.8,210.6,301.2,208.9,301.2"/>
	<path class="st0" d="M223.9,301.3c-4.2,0-6.6-2.6-6.6-7c0-4.2,2.5-7,6.2-7c3.7,0,5.9,2.6,5.9,6.9c0,0.2,0,0.3,0,0.5
		c0,0.1,0,0.2,0,0.3v0.1h-8.5c0.2,2.3,1.4,3.5,3.4,3.5c1.5,0,2.9-0.5,4.5-1.6l0.2-0.1l0.4,2.8l-0.1,0
		C227.7,300.7,225.9,301.3,223.9,301.3 M220.9,292.7h5c-0.2-2-1.1-3-2.5-3C222.1,289.7,221.1,290.8,220.9,292.7"/>
	<path class="st0" d="M244.7,301.3c-3.8,0-6.3-2.8-6.3-7c0-4.2,2.6-7,6.4-7c3.8,0,6.4,2.8,6.4,7
		C251.1,298.4,248.6,301.3,244.7,301.3 M244.7,290.2c-1.8,0-2.9,1.5-2.9,4.1c0,2.5,1.1,4.1,2.9,4.1c1.9,0,3-1.5,3-4.1
		C247.7,291.7,246.5,290.2,244.7,290.2"/>
	<path class="st0" d="M260.2,301h-3.5v-10.6h-1.9v-2.9h1.9v-2.2c0-2.8,1.6-4.2,4.7-4.2c0.6,0,1.1,0.1,1.4,0.1l0.1,0l0.5,2.9l-0.2,0
		c-0.2,0-0.7-0.1-1.4-0.1c-1.1,0-1.6,0.5-1.6,1.6v1.8h2.5l0.4,2.9h-3V301z"/>
	<path class="st0" d="M293.3,301h-3.5v-8.8c0-1.2-0.5-1.8-1.5-1.8c-0.9,0-1.8,0.5-2.8,1.6v9.1h-3.5v-8.8c0-1.2-0.5-1.8-1.5-1.8
		c-0.9,0-1.8,0.5-2.8,1.6v9.1H274v-13.5h3l0.3,1.7c1.1-1,2.5-2,4.3-2c1.7,0,2.9,0.7,3.4,2.1c1.4-1.4,2.9-2.1,4.4-2.1
		c2.5,0,3.9,1.5,3.9,4.1V301z"/>
	<path class="st0" d="M302.7,301h-3.5v-13.5h3.5V301z M300.9,285.5c-1.2,0-2.1-0.9-2.1-2c0-1.2,0.9-2,2.1-2c1.2,0,2.1,0.9,2.1,2
		C303,284.6,302.1,285.5,300.9,285.5"/>
	<path class="st0" d="M320.2,301h-3.5v-8.8c0-0.8-0.3-1.8-1.6-1.8c-0.9,0-1.9,0.5-2.9,1.6v9h-3.5v-13.5h3l0.3,1.7c1-1,2.5-2,4.3-2
		c2.5,0,3.9,1.5,3.9,4.1V301z"/>
	<path class="st0" d="M330.2,301.3c-2.5,0-5.1-1.7-5.1-6.7c0-5.4,3.1-7.3,5.9-7.3c1,0,2,0.1,3,0.4v-6.3l3.5-0.6V301h-3l-0.3-1.7
		C333,300.6,331.7,301.3,330.2,301.3 M331.5,290.2c-1.8,0-2.9,1.6-2.9,4.2c0,2.3,0.9,3.7,2.4,3.7c1,0,1.9-0.5,2.9-1.7v-5.6
		C333.2,290.4,332.5,290.2,331.5,290.2"/>
	<path class="st0" d="M54.3,310.1l3.6,26.2l11.9-19.8l-5,21.8l12.8-12.2l-6.7,16.2l10.7-8c-5,13.5-9.3,21.1-27.2,27.2
		c-18-6.1-22.3-13.7-27.2-27.2l10.7,8l-6.7-16.2l12.8,12.2l-5-21.8l11.9,19.8L54.3,310.1z"/>
	<path class="st0" d="M35.5,301.3c-5.4,0-8.7-2.9-8.7-7.8v-11.7h4.5v11.5c0,2.8,1.5,4.4,4.2,4.4c2.8,0,4.3-1.5,4.3-4.3v-11.6h4.5
		v11.6C44.3,298.3,41,301.3,35.5,301.3"/>
	<path class="st0" d="M52.5,289.5h1.6c2.2,0,3.4-0.8,3.4-2.3c0-1.5-1.1-2.2-3.2-2.2h-1.8V289.5z M52.5,297.8h1.9
		c1.8,0,3.8-0.4,3.8-2.6c0-2.2-2.1-2.7-3.9-2.7h-1.9V297.8z M54.5,301h-6.3v-19.2h6.4c4.7,0,7.3,1.8,7.3,5.1c0,1.7-0.9,3.1-2.6,3.9
		c2.3,0.8,3.5,2.3,3.5,4.5C62.7,299,59.8,301,54.5,301"/>
</g>
<g>
	<path class="st0" d="M75.3,301.3c-6.2,0-10.2-3.9-10.2-9.9c0-5.9,4.2-9.9,10.3-9.9c2.3,0,4.2,0.5,5.9,1.4l0.1,0.1l-0.7,3.9
		l-0.3-0.2c-1.6-1.1-3.2-1.6-4.9-1.6c-3.7,0-5.9,2.4-5.9,6.4c0,3.9,2.3,6.3,6,6.3c1.7,0,3.5-0.5,5.2-1.6l0.3-0.2l0.6,3.6l-0.1,0.1
		C79.9,300.7,77.6,301.3,75.3,301.3"/>
	<path class="st0" d="M20.4,275.8v50.1c0,21.1,11.5,36.3,33.9,42.3c22.4-6,33.9-21.2,33.9-42.3v-50.1H20.4z M54.3,365.5
		c-21.2-6-31.3-20-31.3-40v-47.2h62.6v47.2C85.6,345.5,75.5,359.5,54.3,365.5"/>
</g>
<g>
	<path class="st0" d="M54.3,307.8c4.7,0,5.4,1.9,9.2,1.9c3.8,0,4.4-1.9,9.2-1.9c4.7,0,5.4,1.9,9.2,1.9v-4.4c-3.8,0-4.4-1.9-9.2-1.9
		c-4.7,0-5.4,1.9-9.2,1.9c-3.8,0-4.4-1.9-9.2-1.9c-4.7,0-5.4,1.9-9.2,1.9c-3.8,0-4.4-1.9-9.2-1.9c-4.7,0-5.4,1.9-9.2,1.9v4.4
		c3.8,0,4.4-1.9,9.2-1.9c4.7,0,5.4,1.9,9.2,1.9C49,309.7,49.6,307.8,54.3,307.8"/>
	<path class="st0" d="M57.3,315.7c2.3,0.5,3.4,1.6,6.2,1.6c3.8,0,4.4-1.9,9.2-1.9c4.7,0,5.4,1.9,9.2,1.9v-4.4
		c-3.8,0-4.4-1.9-9.2-1.9c-4.7,0-5.4,1.9-9.2,1.9c-3.1,0-4.1-1.2-6.8-1.7L57.3,315.7z"/>
	<path class="st0" d="M45.1,317.3c2.8,0,3.9-1,6.2-1.6l0.6-4.5c-2.7,0.5-3.7,1.7-6.8,1.7c-3.8,0-4.4-1.9-9.2-1.9
		c-4.7,0-5.4,1.9-9.2,1.9v4.4c3.8,0,4.4-1.9,9.2-1.9C40.7,315.4,41.4,317.3,45.1,317.3"/>
	<path class="st0" d="M58.4,323.7c1.3,0.4,2.3,1,3.8,1.2l2.6-4.4c-0.4,0.1-0.9,0.1-1.4,0.1c-2.6,0-3.7-0.9-5.7-1.4L58.4,323.7z"/>
	<path class="st0" d="M70.5,323.2c0.6-0.1,1.3-0.2,2.2-0.2c4.7,0,5.4,1.9,9.2,1.9v-4.4c-3.8,0-4.4-1.9-9.2-1.9c-0.4,0-0.8,0-1.1,0
		L70.5,323.2z"/>
	<path class="st0" d="M38.1,323.2l-1-4.5c-0.3,0-0.7,0-1.1,0c-4.7,0-5.4,1.9-9.2,1.9v4.4c3.8,0,4.4-1.9,9.2-1.9
		C36.8,323,37.5,323.1,38.1,323.2"/>
	<path class="st0" d="M46.4,324.9c1.5-0.2,2.5-0.7,3.8-1.2l0.6-4.6c-2,0.6-3.1,1.4-5.7,1.4c-0.5,0-1,0-1.4-0.1L46.4,324.9z"/>
</g>
</svg>
